<svg width="1440" height="800" viewBox="0 0 1440 800" fill="none" xmlns="http://www.w3.org/2000/svg">
  <!-- Background buildings -->
  <path d="M100 500V400H150V450H200V350H250V500M300 500V300H350V400H400V350H450V500M500 500V250H550V350H600V300H650V500M700 500V350H750V400H800V300H850V500M900 500V200H950V300H1000V250H1050V500M1100 500V300H1150V400H1200V350H1250V500M1300 500V250H1350V350H1400V300H1450V500" stroke="#8B5CF6" stroke-width="2" stroke-opacity="0.2"/>
  
  <!-- Stars/decorative elements -->
  <circle cx="200" cy="200" r="4" fill="#C4B5FD"/>
  <circle cx="500" cy="150" r="4" fill="#C4B5FD"/>
  <circle cx="800" cy="250" r="4" fill="#C4B5FD"/>
  <circle cx="1100" cy="180" r="4" fill="#C4B5FD"/>
  <circle cx="1300" cy="220" r="4" fill="#C4B5FD"/>
  <path d="M300 180L310 170L320 180L310 190L300 180Z" fill="#C4B5FD"/>
  <path d="M700 120L710 110L720 120L710 130L700 120Z" fill="#C4B5FD"/>
  <path d="M1000 150L1010 140L1020 150L1010 160L1000 150Z" fill="#C4B5FD"/>
  <path d="M1200 100L1210 90L1220 100L1210 110L1200 100Z" fill="#C4B5FD"/>

  <!-- Arc path for the light beam to follow -->
  <path id="arcPath" d="M0 600C240 500 480 450 720 450C960 450 1200 500 1440 600" stroke="#8B5CF6" stroke-opacity="0.1" stroke-width="2" fill="none"/>
</svg> 